<svg width="24" height="24" viewBox="0 0 24 24" fill="none" xmlns="http://www.w3.org/2000/svg">
<g id="lets-icons:check-fill">
<path id="Vector" fill-rule="evenodd" clip-rule="evenodd" d="M12 24C13.1819 24 14.3522 23.7672 15.4442 23.3149C16.5361 22.8626 17.5282 22.1997 18.364 21.364C19.1997 20.5282 19.8626 19.5361 20.3149 18.4442C20.7672 17.3522 21 16.1819 21 15C21 13.8181 20.7672 12.6478 20.3149 11.5558C19.8626 10.4639 19.1997 9.47177 18.364 8.63604C17.5282 7.80031 16.5361 7.13738 15.4442 6.68508C14.3522 6.23279 13.1819 6 12 6C9.61305 6 7.32387 6.94821 5.63604 8.63604C3.94821 10.3239 3 12.6131 3 15C3 17.3869 3.94821 19.6761 5.63604 21.364C7.32387 23.0518 9.61305 24 12 24ZM11.768 18.64L16.768 12.64L15.232 11.36L10.932 16.519L8.707 14.293L7.293 15.707L10.293 18.707L11.067 19.481L11.768 18.64Z" fill="#007730"/>
</g>
</svg>
